# Blender UV-scaled wall mesh
# UV scale: 3.5 3.5
 o wall1_mesh
v 0.005000 1.750000 -0.500000
v 0.005000 -1.750000 -0.500000
v 0.005000 1.750000 0.500000
v 0.005000 -1.750000 0.500000
v -0.005000 1.750000 -0.500000
v -0.005000 -1.750000 -0.500000
v -0.005000 1.750000 0.500000
v -0.005000 -1.750000 0.500000
vn 0 1 0
vn 0 0 1
vn -1 0 0
vn 0 -1 0
vn 1 0 0
vn 0 0 -1
vt 1.166667 0.000000
vt 1.166667 1.166667
vt 0.000000 1.166667
vt 0.000000 0.000000
vt 1.166667 2.333334
vt 0.000000 2.333334
vt 0.000000 1.166667
vt 1.166667 1.166667
vt 2.333334 1.166667
vt 1.166667 1.166667
vt 1.166667 0.000000
vt 2.333334 0.000000
vt 2.333334 1.166667
vt 2.333334 2.333334
vt 1.166667 2.333334
vt 1.166667 1.166667
vt 1.166667 3.500000
vt 0.000000 3.500000
vt 0.000000 2.333334
vt 1.166667 2.333334
vt 2.333334 3.500000
vt 1.166667 3.500000
vt 1.166667 2.333334
vt 2.333334 2.333334
s 0
f 1/1/1 5/2/1 7/3/1 3/4/1
f 4/5/2 3/6/2 7/7/2 8/8/2
f 8/9/3 7/10/3 5/11/3 6/12/3
f 6/13/4 2/14/4 4/15/4 8/16/4
f 2/17/5 1/18/5 3/19/5 4/20/5
f 6/21/6 5/22/6 1/23/6 2/24/6
